    <svg xmlns="http://www.w3.org/2000/svg" viewBox="0 0 124 26" class="navbar-brand__logo">
        <path fill="#09c" d="M25.9,25.7 L14.9,25.7 L14.9,12.9 L11.4,25.7 L0.4,25.7 L0.4,4.4 L9.2,4.4 L9.2,17.2 L12.7,4.4 L19.1,4.4 L19.1,17.2 L22.5,4.4 L31.6,4.4 L25.9,25.7 Z M116.9,25.7 L107.3,25.7 L114.1,0.2 L123.7,0.2 L116.9,25.7 Z M105.6,21.4 L104.4,25.7 L83.6,25.7 L84.7,21.4 L97.5,8.7 L88.2,8.7 L89.3,4.4 L110.1,4.4 L109,8.7 L96.2,21.4 L105.6,21.4 Z M62.6,4.4 C68.2,4.4 78.3,4.4 78.3,4.4 C82.2,4.4 85.4,6.2 85.4,8.6 C85.4,8.8 85.4,9.1 85.3,9.3 L80.9,25.6 L71.3,25.6 L75.4,10.3 C75.4,10.2 75.4,10.1 75.4,10 C75.4,9.2 74.4,8.6 73,8.6 C73,8.6 71.7,8.6 71,8.6 L66.4,25.6 L56.8,25.6 L62.6,4.4 Z M44.5,12.9 L43.4,17.2 C43.2,17.2 43,17.2 43,17.2 C41.8,17.2 40.9,17.7 40.7,18.4 L40.3,19.8 C40.3,19.9 40.3,20 40.3,20 C40.3,20.8 41.4,21.4 42.7,21.4 L44.7,21.4 L47.6,10.3 C47.6,10.2 47.7,10.1 47.7,10 C47.7,9.2 46.6,8.6 45.3,8.6 C44.1,8.6 43.1,9.1 43,9.8 L42.8,10.8 L33,10.8 L33.7,8.1 C34.2,6 37.1,4.4 40.7,4.4 C40.7,4.4 46.7,4.4 50.3,4.4 C54.2,4.4 57.5,6.2 57.5,8.6 C57.5,8.8 57.5,9.1 57.4,9.3 L53,25.7 L37.4,25.7 C33.5,25.7 30.3,23.8 30.3,21.4 C30.3,21.2 30.3,21 30.3,20.7 L31.5,16.3 C32.1,14.3 35,12.9 38.5,12.9 C38.6,12.9 42.2,12.9 44.5,12.9 Z"></path>
    </svg>